<svg id="Guides1" xmlns="http://www.w3.org/2000/svg" viewBox="0 0 1322.13 200.74"><defs><style>.cls-1{fill:#fff;}.cls-2{fill:#ffb255;}</style></defs><title>Logo_main</title><g id="Figure1"><path class="cls-1" d="M500.07,100h18c0-2.4.13-4.78.33-7.13L502.69,77.15A100.53,100.53,0,0,0,500.07,100Z"/><path class="cls-1" d="M600.06,0A99.8,99.8,0,0,0,521,38.85l12.89,12.89A82,82,0,1,1,528.53,140H508.4A100,100,0,1,0,600.06,0Z"/><polygon class="cls-1" points="900.07 0 900.07 18 705.34 18 700.05 12.71 700.05 0 900.07 0"/><polygon class="cls-1" points="806.42 93.61 712.8 0 687.35 0 700.05 12.71 705.34 18 793.7 106.34 806.42 93.61"/><path class="cls-1" d="M748.83,164l-36,36H687.34l35.93-35.92,12.83-12.82A81,81,0,0,0,748.83,164Z"/><path class="cls-1" d="M900,100a100,100,0,0,1-176.77,64.07l12.83-12.82A82.16,82.16,0,0,0,800.05,182a82.1,82.1,0,0,0,82-82Z"/><rect class="cls-1" x="881.97" width="18" height="36"/><rect class="cls-1" x="767.15" y="100.87" width="46" height="18" transform="translate(153.74 590.9) rotate(-45)"/><rect class="cls-1" x="940.06" width="18" height="199.98"/><rect class="cls-1" x="940.06" y="181.99" width="99.99" height="18"/><rect class="cls-1" x="1040.06" y="149.99" width="18" height="50"/><polygon class="cls-2" points="0 159.99 0.1 199.98 40 199.98 0 159.99"/><polygon class="cls-1" points="187.37 0 100.1 87.27 30.84 18 100.1 18 100.1 0 12.84 0 5.11 0 0.11 0 0.11 12.73 5.11 17.73 5.11 18 5.38 18 91.1 103.71 91.1 199.98 109.1 199.98 109.1 103.71 182.09 30.73 182.09 99.99 200.09 99.99 200.09 12.73 200.09 9 200.09 0 187.37 0"/><polygon class="cls-1" points="360.08 0 354.81 5.27 160.1 199.98 181.82 199.98 185.56 199.98 277.95 199.98 277.95 181.99 203.55 181.99 354.81 30.73 354.81 199.98 372.81 199.98 372.81 12.73 372.81 0 360.08 0"/><polygon class="cls-1" points="1309.4 199.98 1304.13 194.71 1109.42 0 1131.15 0 1134.88 0 1227.27 0 1227.27 18 1152.88 18 1304.13 169.26 1304.13 0 1322.13 0 1322.13 187.25 1322.13 199.98 1309.4 199.98"/><polygon class="cls-1" points="430.81 5.27 430.81 200.74 412.81 200.74 412.81 0 425.54 0 430.81 5.27"/><polygon class="cls-1" points="525.53 99.99 500.07 99.99 412.81 12.73 412.81 0 425.54 0 525.53 99.99"/><polygon class="cls-1" points="1058.06 5.27 1052.79 0 1040.06 0 1040.06 12.73 1040.06 109.99 1058.06 109.99 1058.06 30.73 1209.31 181.99 1134.92 181.99 1134.92 199.98 1227.31 199.98 1231.04 199.98 1252.77 199.98 1058.06 5.27"/><circle class="cls-2" cx="600.06" cy="99.99" r="9"/></g></svg>