<svg id="Layer_1" data-name="Layer 1" xmlns="http://www.w3.org/2000/svg" viewBox="0 0 1322.13 200"><defs><style>.cls-1{fill:#fff;}</style></defs><title>Logo_bg</title><g id="Figure1"><path class="cls-1" d="M500,100h18c0-2.4.13-4.78.33-7.13L502.62,77.16A100.53,100.53,0,0,0,500,100Z"/><path class="cls-1" d="M600,0a99.82,99.82,0,0,0-79.12,38.85l12.89,12.89A82,82,0,1,1,528.46,140H508.33A100,100,0,1,0,600,0Z"/><polygon class="cls-1" points="900.03 0 900.03 18 705.29 18 700 12.71 700 0 900.03 0"/><polygon class="cls-1" points="806.38 93.62 712.75 0 687.29 0 700 12.71 705.29 18 793.65 106.35 806.38 93.62"/><path class="cls-1" d="M748.78,164l-36,36H687.29l35.93-35.93,12.83-12.82A81,81,0,0,0,748.78,164Z"/><path class="cls-1" d="M900,100a100,100,0,0,1-176.78,64.07l12.83-12.82A82.16,82.16,0,0,0,800,182a82.1,82.1,0,0,0,82-82Z"/><rect class="cls-1" x="881.93" width="18" height="36"/><rect class="cls-1" x="767.1" y="100.88" width="46" height="18" transform="translate(153.72 590.87) rotate(-45)"/><rect class="cls-1" x="940.03" width="18" height="200"/><rect class="cls-1" x="940.03" y="182" width="100" height="18"/><rect class="cls-1" x="1040.03" y="150" width="18" height="50"/><polygon class="cls-1" points="-0.11 160 -0.01 200 39.89 200 -0.11 160"/><polygon class="cls-1" points="187.27 0 100 87.28 30.73 18 100 18 100 0 12.73 0 5 0 0 0 0 12.73 5 17.73 5 18 5.27 18 91 103.72 91 200 109 200 109 103.72 182 30.73 182 100 200 100 200 12.73 200 9 200 0 187.27 0"/><polygon class="cls-1" points="360 0 354.73 5.27 160 200 181.73 200 185.46 200 277.86 200 277.86 182 203.46 182 354.73 30.73 354.73 200 372.73 200 372.73 12.73 372.73 0 360 0"/><polygon class="cls-1" points="1309.4 200 1304.13 194.73 1109.4 0 1131.13 0 1134.86 0 1227.26 0 1227.26 18 1152.86 18 1304.13 169.27 1304.13 0 1322.13 0 1322.13 187.27 1322.13 200 1309.4 200"/><polygon class="cls-1" points="430.73 5.27 430.73 200.76 412.73 200.76 412.73 0 425.46 0 430.73 5.27"/><polygon class="cls-1" points="525.46 100 500 100 412.73 12.73 412.73 0 425.46 0 525.46 100"/><polygon class="cls-1" points="1058.03 5.27 1052.76 0 1040.03 0 1040.03 12.73 1040.03 110 1058.03 110 1058.03 30.73 1209.3 182 1134.9 182 1134.9 200 1227.3 200 1231.03 200 1252.76 200 1058.03 5.27"/><circle class="cls-1" cx="600" cy="100" r="9"/></g></svg>