<?xml version="1.0" encoding="utf-8"?>
<!-- Generator: Adobe Illustrator 23.1.1, SVG Export Plug-In . SVG Version: 6.00 Build 0)  -->
<svg version="1.1" id="Layer_1" xmlns="http://www.w3.org/2000/svg" xmlns:xlink="http://www.w3.org/1999/xlink" x="0px" y="0px"
	 viewBox="0 0 687 465.3" style="enable-background:new 0 0 687 465.3;" xml:space="preserve">
<style type="text/css">
	.st0{opacity:0.6;enable-background:new    ;}
	.st1{opacity:0.2;}
	.st2{fill:none;stroke:#000000;stroke-width:0.5;stroke-miterlimit:10;}
	.st3{opacity:0.68;fill:none;stroke:#000000;stroke-width:1.5;stroke-miterlimit:10;enable-background:new    ;}
	.st4{fill:none;stroke:#000000;stroke-width:0.5;stroke-miterlimit:10;stroke-dasharray:5;}
	.st5{fill:none;stroke:#000000;stroke-width:0.5;stroke-miterlimit:10;stroke-dasharray:4.9766,4.9766;}
	.st6{opacity:0.8;fill:none;stroke:#000000;stroke-width:0.5;stroke-miterlimit:10;enable-background:new    ;}
	.st7{fill:none;stroke:#000000;stroke-width:0.5;stroke-miterlimit:10;stroke-dasharray:5.0278,5.0278;}
	.st8{opacity:0.7;fill:url(#SVGID_1_);enable-background:new    ;}
</style>
<g>
	<path class="st0" d="M8.2,463.7c1,0,1.7-0.3,2.1-0.7s0.7-0.9,0.8-1.4c0-0.2,0-0.5,0.1-0.7s0-0.4,0-0.6V453L4,440.4l-0.1-0.1
		l-0.1-0.1c-0.5-0.8-1.1-1.5-1.6-1.8s-1.3-0.5-2.2-0.5v-1.1h9.2v1.1c0,0,0,0-0.1,0s0,0-0.1,0l0,0c-0.5,0-1,0.1-1.4,0.2
		S7,438.4,7,438.8c0,0.1,0,0.3,0.1,0.5s0.1,0.4,0.2,0.6c0,0,0.1,0.1,0.1,0.2s0.1,0.1,0.1,0.2c0.1,0.2,0.1,0.3,0.2,0.5
		s0.1,0.3,0.2,0.3l5.7,9.6h0.2l5-9.5c0-0.1,0.1-0.2,0.2-0.4c0.1-0.2,0.1-0.3,0.2-0.6c0,0,0-0.1,0.1-0.1s0-0.1,0-0.1
		c0.1-0.3,0.2-0.5,0.3-0.8s0.1-0.4,0.1-0.5c0-0.3-0.1-0.5-0.4-0.6s-0.6-0.1-0.9-0.2c-0.1,0-0.1,0-0.2,0c0,0-0.1,0-0.2,0v-1.1h6.8
		v1.1h-0.1h-0.1c0,0,0,0-0.1,0s0,0-0.1,0c0,0-0.1,0-0.2,0s-0.2,0-0.3,0.1c-0.3,0-0.5,0.1-0.8,0.1s-0.5,0.2-0.7,0.3
		c-0.2,0.1-0.5,0.3-0.7,0.6c-0.2,0.3-0.5,0.6-0.8,1.1s-0.5,0.8-0.6,1s-0.2,0.3-0.2,0.5l0,0c0,0,0,0.1-0.1,0.2s0,0.1,0,0.2l-5.6,11.1
		v7.2c0,0.1,0,0.2,0,0.3s0,0.2,0,0.3c0,0.7,0.2,1.3,0.6,1.9s1.2,0.9,2.4,1v1.1H8.2V463.7z"/>
	<path class="st0" d="M42.7,439c1-0.3,1.9-0.7,2.7-1.1s1.3-1.3,1.5-2.4h1.7l7.3,24c0,0.1,0.1,0.2,0.1,0.3s0.1,0.2,0.1,0.3
		c0.4,1.1,0.8,1.9,1.4,2.5s1.4,1,2.7,1.2v1.1h-9.4v-1.1c1.1,0,1.8-0.2,2.1-0.5c0.4-0.3,0.5-0.7,0.5-1.1c0-0.2,0-0.4-0.1-0.7
		s-0.1-0.5-0.2-0.8v-0.1c0,0,0-0.1-0.1-0.2l-1.2-4.2h-10l-1.4,4.2c0,0.1-0.1,0.3-0.1,0.4s0,0.3-0.1,0.5c0,0.2,0,0.4,0,0.6
		s0,0.3,0,0.5c0,0.4,0.2,0.7,0.6,0.9c0.4,0.2,0.9,0.3,1.4,0.4v1.1h-8v-1.1c1.1-0.2,2-0.7,2.7-1.3s1.1-1.4,1.5-2.3l6.2-17.9
		c0-0.1,0.1-0.2,0.1-0.3s0-0.2,0.1-0.3s0-0.2,0.1-0.3s0-0.2,0-0.3c0-0.3-0.1-0.6-0.3-0.8s-0.5-0.3-1-0.3c-0.1,0-0.2,0-0.4,0
		s-0.3,0-0.5,0.1V439L42.7,439z M46.9,441h-0.2l-4.4,13.5h8.8L46.9,441z"/>
	<path class="st0" d="M88.6,438.2c1.4,0.9,2.3,2,2.8,3.1c0.4,0.7,0.6,1.4,0.7,2s0.1,1.2,0.1,1.6c0,1.9-0.5,3.4-1.5,4.6
		s-2,1.9-3.2,2.4c-0.3,0.1-0.6,0.2-0.9,0.3s-0.5,0.2-0.8,0.2l4.8,8.2c0.1,0.2,0.2,0.3,0.3,0.4s0.1,0.2,0.2,0.3l0,0c0,0,0,0,0,0.1
		c0,0,0.1,0.1,0.1,0.2s0.1,0.1,0.1,0.2s0.1,0.2,0.3,0.4s0.3,0.3,0.5,0.5c0.3,0.2,0.6,0.5,1,0.7s0.9,0.3,1.5,0.3l0,0l0,0v1.1h-8.9
		v-1.1h0.5c0.5,0,0.9,0,1.3-0.1s0.6-0.3,0.6-0.7v-0.1v-0.1c0-0.2-0.1-0.4-0.3-0.7c-0.2-0.2-0.3-0.5-0.5-0.8c0,0-0.1-0.1-0.1-0.2
		s0-0.1-0.1-0.2l-4.6-7.8c-0.2,0-0.4,0-0.5,0s-0.3,0-0.4,0c-0.2,0-0.4,0-0.6,0s-0.5,0-0.8,0c-0.1,0-0.2,0-0.2,0h-0.2
		c-0.2,0-0.4,0-0.5,0s-0.3,0-0.5,0s-0.5,0-0.7-0.1s-0.5-0.1-0.9-0.1v7.1c0,0.1,0,0.2,0,0.3s0,0.2,0,0.3c0,0.8,0.3,1.4,0.6,2.1
		s1.1,1,2.4,1.1v1.1H71v-1.1c1.3,0,2.2-0.4,2.5-1.1s0.5-1.6,0.5-2.7v-18.2c0-1.1-0.2-2-0.6-2.6s-1.2-1-2.4-1.2v-1.1h11.5
		C85.1,436.8,87.2,437.3,88.6,438.2z M77.1,451.3c0.5,0.1,1,0.1,1.6,0.2s1,0.1,1.4,0.1c2.8,0,4.9-0.7,6.3-2s2.1-2.9,2.1-4.8
		c0-1.8-0.4-3.1-1.2-3.9s-1.7-1.5-2.6-1.8c-0.6-0.2-1.2-0.3-1.8-0.4s-1-0.1-1.4-0.1c-1.6,0-2.8,0.1-3.4,0.3c-0.6,0.2-1,0.8-1,1.6
		V451.3L77.1,451.3z"/>
	<path class="st0" d="M107.2,441.8c1.6-2,3.5-3.5,5.4-4.4c0.9-0.4,1.9-0.7,2.8-0.9s1.7-0.3,2.4-0.3s1.5,0.1,2.4,0.3s1.8,0.5,2.7,0.9
		c2,0.8,3.9,2.3,5.5,4.4s2.5,4.9,2.5,8.6c0,4.2-1,7.4-2.9,9.7s-4.1,3.8-6.4,4.6c-0.7,0.2-1.3,0.4-2,0.5s-1.3,0.2-1.9,0.2
		s-1.3-0.1-2-0.2s-1.4-0.3-2.2-0.6c-2.2-0.8-4.3-2.4-6.1-4.7s-2.8-5.5-2.8-9.5C104.8,446.7,105.6,443.9,107.2,441.8z M116.4,438.1
		c-0.5,0.1-1,0.2-1.6,0.5c-1.6,0.6-3.1,1.9-4.4,3.7s-2,4.6-2,8.2c0,3.7,0.8,6.8,2.4,9.4s3.9,3.8,7.1,3.8c2.9,0,5.1-1,6.5-3.1
		s2.3-4.3,2.7-6.8c0.1-0.6,0.1-1.2,0.2-1.7s0.1-1.1,0.1-1.6c0-3.6-0.7-6.3-2-8.2c-1.3-1.8-2.8-3.1-4.4-3.7c-0.5-0.2-1.1-0.4-1.6-0.5
		s-1-0.1-1.5-0.1C117.4,437.9,116.9,438,116.4,438.1z"/>
	<path class="st0" d="M159.6,442.9c-0.4-1.2-1-2.2-1.9-2.9s-2-1.3-3-1.7c-0.4-0.1-0.8-0.2-1.1-0.3s-0.7-0.1-1.1-0.1
		c-1.5,0-2.7,0.4-3.6,1.1s-1.4,1.7-1.4,3c0,1.4,0.5,2.5,1.4,3.3s2.1,1.5,3.5,2.2c0.3,0.2,0.6,0.3,1,0.5c0.3,0.2,0.7,0.3,1,0.5
		c0.4,0.2,0.8,0.4,1.2,0.6s0.8,0.4,1.2,0.5c1.9,0.9,3.4,1.9,4.6,3s1.7,2.7,1.7,4.8c0,0.4,0,0.8-0.1,1.2c-0.1,0.4-0.2,0.8-0.3,1.2
		c-0.5,1.4-1.4,2.7-2.8,3.9s-3.3,1.8-5.7,1.8c-1,0-1.9-0.1-2.8-0.2c-0.9-0.1-1.8-0.3-2.6-0.6c-0.8-0.2-1.5-0.5-2.3-0.8
		s-1.5-0.7-2.4-1.1l-0.3-5.3h1c0.4,1.7,1.4,3.1,3.1,4.4c1.7,1.2,3.5,1.9,5.4,2h0.1h0.1c1.9,0,3.4-0.5,4.6-1.5c1.2-1,1.8-2.2,1.8-3.7
		c0-1.8-0.6-3.1-1.7-3.9c-1.1-0.8-2.4-1.5-3.9-2.2c-0.2-0.1-0.3-0.2-0.5-0.2c-0.2-0.1-0.3-0.1-0.5-0.2c-0.6-0.3-1.2-0.5-1.8-0.8
		s-1.1-0.5-1.6-0.8c-1.8-0.9-3.1-1.9-4-3s-1.3-2.5-1.3-4.2c0-2,0.8-3.7,2.3-5s3.6-2,6.1-2c1,0,2,0.2,3.2,0.5s2.5,0.9,3.8,1.7
		l0.4,4.6L159.6,442.9L159.6,442.9z"/>
	<path class="st0" d="M184.8,436.8v1.1c-1,0-1.8,0.2-2.2,0.8s-0.7,1.5-0.7,2.6v18.6c0,1.1,0.1,1.9,0.4,2.5s0.9,0.8,1.9,0.8h3.5
		c1.6,0,3.1-0.3,4.4-0.8c1.3-0.5,2.4-1.6,3.2-3.2h1l-1,5.7h-19.7v-1.1c1.3-0.1,2.1-0.5,2.5-1.1c0.4-0.7,0.5-1.5,0.5-2.7v-19
		c0-0.8-0.2-1.5-0.5-1.9s-0.7-0.7-1.1-0.9c-0.2-0.1-0.4-0.1-0.6-0.2s-0.4-0.1-0.5-0.1v-1.1L184.8,436.8L184.8,436.8z"/>
	<path class="st0" d="M214,439c1-0.3,1.9-0.7,2.7-1.1c0.8-0.5,1.3-1.3,1.5-2.4h1.7l7.3,24c0,0.1,0.1,0.2,0.1,0.3s0.1,0.2,0.1,0.3
		c0.4,1.1,0.8,1.9,1.4,2.5s1.4,1,2.7,1.2v1.1H222v-1.1c1.1,0,1.8-0.2,2.1-0.5c0.4-0.3,0.5-0.7,0.5-1.1c0-0.2,0-0.4-0.1-0.7
		s-0.1-0.5-0.2-0.8v-0.1c0,0,0-0.1-0.1-0.2l-1.2-4.2h-10l-1.4,4.2c0,0.1-0.1,0.3-0.1,0.4s0,0.3-0.1,0.5c0,0.2,0,0.4,0,0.6
		s0,0.3,0,0.5c0,0.4,0.2,0.7,0.6,0.9c0.4,0.2,0.9,0.3,1.4,0.4v1.1h-8v-1.1c1.1-0.2,2-0.7,2.7-1.3s1.1-1.4,1.5-2.3l6.2-17.9
		c0-0.1,0.1-0.2,0.1-0.3s0-0.2,0.1-0.3s0-0.2,0.1-0.3s0-0.2,0-0.3c0-0.3-0.1-0.6-0.3-0.8s-0.5-0.3-1-0.3c-0.1,0-0.2,0-0.4,0
		s-0.3,0-0.5,0.1L214,439L214,439z M218.3,441h-0.2l-4.4,13.5h8.8L218.3,441z"/>
	<path class="st0" d="M250.1,437.9c-0.1,0-0.1,0-0.2,0.1s-0.1,0-0.2,0s-0.1,0-0.1,0s0,0-0.1,0c-0.4,0-0.7,0.1-0.9,0.2
		c-0.2,0.2-0.3,0.3-0.4,0.4c0,0.1-0.1,0.2-0.1,0.3s0,0.2,0,0.2s0,0.1,0,0.2s0,0.2,0.1,0.2v0.1v0.1c0,0,0,0.1,0.1,0.1s0,0.1,0,0.1
		L255,460h0.2l6.8-18c0.1-0.4,0.2-0.7,0.4-1c0.1-0.3,0.2-0.5,0.2-0.8c0-0.7-0.2-1.3-0.7-1.7c-0.5-0.4-1-0.6-1.5-0.7h-0.1h-0.1v-1.1
		h8.1v1.1c-1,0-1.8,0.3-2.4,0.9c-0.6,0.5-1.1,1.3-1.4,2.2l-9,24.4h-2.2l-8.3-24.2c-0.4-1.1-0.8-1.9-1.4-2.4s-1.3-0.8-2.3-0.9v-1.1h9
		L250.1,437.9L250.1,437.9z"/>
	<path class="st0" d="M314.4,437.1c1,0.2,2.1,0.5,3.1,0.8c2.2,0.8,4.2,2.1,6.1,4s2.8,4.5,2.8,7.8c0,1-0.1,2-0.3,3s-0.5,2.2-0.9,3.4
		c-0.9,2.6-2.4,4.6-4.5,6.2c-2.2,1.6-5.2,2.4-9.2,2.4h-10.8v-1.1c1.1,0,1.9-0.4,2.3-1s0.7-1.5,0.7-2.8v-18.2c0-1.1-0.2-2-0.6-2.7
		s-1.2-1-2.4-1.1v-1.1h11C312.5,436.8,313.4,436.9,314.4,437.1z M306.8,460.4c0,1.2,0.2,2,0.7,2.3s1.3,0.4,2.4,0.4
		c4.5,0,7.7-1,9.6-3s2.9-5,2.9-9c0-3.9-0.7-6.8-2.1-8.5s-2.9-2.9-4.5-3.4c-0.8-0.3-1.6-0.5-2.4-0.5c-0.8-0.1-1.5-0.2-2.1-0.2
		c-0.2,0-0.4,0-0.6,0s-0.4,0-0.6,0c-0.1,0-0.2,0-0.3,0s-0.2,0-0.3,0c-0.1,0-0.2,0-0.3,0c-0.1,0-0.2,0-0.3,0c-1,0.1-1.6,0.3-1.9,0.7
		s-0.5,0.9-0.5,1.4c0,0.1,0,0.2,0,0.3s0,0.2,0,0.3c0,0,0,0,0,0.1s0,0,0,0.1L306.8,460.4L306.8,460.4z"/>
	<path class="st0" d="M364.5,437.9c-0.9,0-1.5,0.2-1.9,0.6s-0.7,0.8-0.9,1.2c-0.1,0.3-0.1,0.6-0.2,0.8c0,0.3,0,0.5,0,0.6v13.6
		c0,0.5,0,1.2-0.1,2.1s-0.3,1.8-0.6,2.7c-0.5,1.4-1.5,2.8-2.8,3.9s-3.6,1.8-6.5,1.8c-3.5,0-5.9-0.6-7.3-1.9s-2.3-2.7-2.7-4.3
		c-0.2-0.7-0.3-1.4-0.3-2c0-0.7-0.1-1.3-0.1-1.8v-13.6c0-0.1,0-0.3,0-0.4c0-0.2,0-0.3,0-0.5c0-0.7-0.3-1.3-0.6-1.9s-1.1-0.9-2.3-1
		v-1.1h9.2v1.1c-1.2,0-2,0.4-2.4,1.1s-0.6,1.6-0.6,2.7v13.9c0,2.7,0.5,4.7,1.5,6.1s3,2,6,2c2.6,0,4.4-0.5,5.5-1.7s1.9-2.3,2.3-3.7
		c0.2-0.8,0.3-1.6,0.4-2.3s0.1-1.4,0.1-1.9v-12.2c0-1.2-0.2-2.2-0.5-2.9s-1.2-1.1-2.5-1.2v-1.1h7.6L364.5,437.9L364.5,437.9z"/>
	<path class="st0" d="M388.1,436.8c2.8,0,4.7,0.5,6,1.4c1.2,1,2,2,2.4,3.1c0.1,0.3,0.2,0.7,0.2,1s0.1,0.7,0.1,0.9
		c0,1.8-0.6,3.2-1.7,4.3s-2.5,1.8-4,2.1l-0.1,0.2c2,0.3,3.6,0.9,4.7,1.8s1.9,1.8,2.4,2.8c0.2,0.5,0.4,1,0.5,1.6s0.1,1,0.1,1.4
		c0,0.3,0,0.5,0,0.8s-0.1,0.5-0.1,0.8c-0.3,1.4-1.2,2.8-2.5,4s-3.4,1.8-6.3,1.8h-13.5v-1.1c1.2,0,1.9-0.4,2.3-1s0.6-1.2,0.6-1.9
		c0-0.2,0-0.3,0-0.5s0-0.3,0-0.4v-18.2c0-1.2-0.2-2.2-0.7-2.8s-1.2-1-2.3-1v-1.1L388.1,436.8L388.1,436.8z M387.2,449.4
		c2,0,3.5-0.4,4.4-1.2s1.4-1.8,1.6-2.8c0.1-0.3,0.1-0.6,0.2-0.9c0-0.3,0-0.6,0-0.9c0-1.5-0.4-2.7-1.1-3.4s-1.5-1.2-2.4-1.4
		c-0.5-0.2-1.1-0.2-1.6-0.3s-0.9,0-1.3,0h-2.7c-0.6,0-1.1,0.1-1.4,0.3c-0.3,0.2-0.5,0.5-0.6,0.7c-0.1,0.1-0.1,0.3-0.1,0.4
		s0,0.2,0,0.4v9.1L387.2,449.4L387.2,449.4z M382.2,461.8c0,0.4,0.2,0.7,0.5,0.9s0.7,0.3,1,0.4c0.2,0,0.4,0.1,0.6,0.1s0.3,0,0.5,0
		h2.8c0.3,0,0.8,0,1.5-0.1s1.3-0.2,2-0.4c1-0.3,1.8-0.8,2.6-1.6s1.2-2,1.2-3.7c0-1.9-0.4-3.2-1.3-4.1c-0.8-0.9-1.8-1.5-2.8-1.8
		c-0.7-0.2-1.3-0.3-1.9-0.3s-1.1-0.1-1.5-0.1h-5.1v10.7H382.2z"/>
	<path class="st0" d="M430.8,442.3h-1c-0.3-0.9-0.8-1.7-1.4-2.2s-1.3-0.9-2-1.1c-0.5-0.2-1.1-0.3-1.6-0.4s-1-0.1-1.3-0.1h-4.9
		c-0.7,0-1.3,0.1-1.6,0.4c-0.4,0.3-0.5,0.8-0.5,1.6v8.2h6.2c1.2,0,2-0.2,2.5-0.5s0.8-1,0.9-2.2h1v7.2h-1v-0.3c0,0,0-0.1,0-0.2
		s0-0.1,0-0.2c-0.1-0.5-0.3-1-0.8-1.5s-1-0.7-1.6-0.7h-7.2v10.2c0,1.2,0.3,2,0.9,2.2s1.6,0.3,3,0.3h3c1.8,0,3.2-0.3,4.4-0.9
		c1.2-0.6,2.1-1.6,2.9-3.1h1l-0.9,5.7h-20.5v-1.1c1.2,0,1.9-0.4,2.3-1s0.6-1.2,0.6-1.9c0-0.2,0-0.3,0-0.5s0-0.3,0-0.4v-18.2
		c0-0.1,0-0.3,0-0.4c0-0.2,0-0.3,0-0.5c0-0.7-0.3-1.3-0.6-1.9s-1.1-0.9-2.3-1v-1.1h19.6L430.8,442.3z"/>
	<path class="st0" d="M470.4,437.9c-1,0.1-1.6,0.4-2,0.7c-0.4,0.3-0.7,0.7-0.8,1.1c0,0.2-0.1,0.5-0.1,0.7s0,0.4,0,0.6
		c0,0.1,0,0.1,0,0.2s0,0.1,0,0.1s0,0,0,0.1s0,0.1,0,0.1c0,0.1,0,0.2,0,0.2c0,0.1,0,0.1,0,0.2v0.1v0.1v23.3h-2.2l-16.5-24.6h-0.2V461
		c0,0.8,0.3,1.5,0.9,2s1.3,0.7,2.2,0.7l0,0l0,0v1.1h-8.1v-1.1c1.4,0,2.3-0.4,2.7-1.2c0.4-0.8,0.6-1.7,0.6-2.8v-18.2
		c0-1.2-0.2-2-0.7-2.5s-1-0.8-1.5-1c-0.2,0-0.3-0.1-0.5-0.1s-0.3,0-0.5,0v-1.1h6.9l15,22.8h0.3v-17.4c0-1.5-0.2-2.5-0.5-3.1
		s-0.7-0.9-1.2-1.1c-0.2,0-0.3-0.1-0.5-0.1s-0.3,0-0.4,0h-0.1c0,0,0,0-0.1,0c0,0-0.1,0-0.2,0s-0.1,0-0.2,0v-1.1h7.9v1.1H470.4z"/>
	<path class="st0" d="M491.2,436.8v1.1c-1.2,0.1-2,0.4-2.4,1.1s-0.6,1.3-0.6,2.1c0,0.1,0,0.2,0,0.3s0,0.2,0,0.3v18.2
		c0,0.1,0,0.2,0,0.3s0,0.2,0,0.3c0,0.8,0.3,1.4,0.6,2.1s1.2,1,2.4,1.1v1.1H482v-1.1c1,0,1.7-0.3,2.1-0.8s0.7-1,0.8-1.5
		c0-0.3,0.1-0.5,0.1-0.8s0-0.5,0-0.7v-18.2c0-0.2,0-0.5,0-0.7c0-0.3,0-0.5-0.1-0.8c-0.1-0.5-0.4-1-0.8-1.5s-1.1-0.7-2.1-0.8v-1.1
		H491.2L491.2,436.8z"/>
	<path class="st0" d="M529.3,437.9c-0.9,0-1.5,0.2-1.9,0.6s-0.7,0.8-0.9,1.2c-0.1,0.3-0.1,0.6-0.2,0.8c0,0.3,0,0.5,0,0.6v13.6
		c0,0.5,0,1.2-0.1,2.1s-0.3,1.8-0.6,2.7c-0.5,1.4-1.5,2.8-2.8,3.9s-3.6,1.8-6.5,1.8c-3.5,0-5.9-0.6-7.3-1.9s-2.3-2.7-2.7-4.3
		c-0.2-0.7-0.3-1.4-0.3-2c0-0.7-0.1-1.3-0.1-1.8v-13.6c0-0.1,0-0.3,0-0.4c0-0.2,0-0.3,0-0.5c0-0.7-0.3-1.3-0.6-1.9s-1.1-0.9-2.3-1
		v-1.1h9.2v1.1c-1.2,0-2,0.4-2.4,1.1s-0.6,1.6-0.6,2.7v13.9c0,2.7,0.5,4.7,1.5,6.1s3,2,6,2c2.6,0,4.4-0.5,5.5-1.7s1.9-2.3,2.3-3.7
		c0.2-0.8,0.3-1.6,0.4-2.3s0.1-1.4,0.1-1.9v-12.2c0-1.2-0.2-2.2-0.5-2.9s-1.2-1.1-2.5-1.2v-1.1h7.6L529.3,437.9L529.3,437.9z"/>
	<path class="st0" d="M550.1,437.9c-1.2,0-2,0.4-2.4,1.1s-0.6,1.6-0.6,2.7v10.4l9.6-10.6c0,0,0,0,0-0.1c0.1-0.1,0.2-0.2,0.2-0.3
		s0.2-0.3,0.4-0.5c0,0,0,0,0.1-0.1s0-0.1,0.1-0.1c0.1-0.1,0.2-0.2,0.2-0.3s0.1-0.2,0.2-0.3s0.1-0.2,0.1-0.3c0-0.1,0.1-0.2,0.1-0.3
		s0-0.2,0-0.2c0-0.1-0.1-0.2-0.1-0.3c-0.1-0.2-0.3-0.3-0.6-0.5s-0.7-0.2-1.2-0.3c0,0,0,0-0.1,0s-0.1,0-0.1,0s-0.1,0-0.2,0
		s-0.1,0-0.2,0v-1.1h8.8v1.1c-1.2,0.2-2.1,0.5-2.8,1s-1.3,1-1.9,1.6c0,0.1-0.1,0.2-0.2,0.3s-0.2,0.2-0.2,0.2l-6.3,6.8l7.5,12.9
		c0.1,0.2,0.2,0.3,0.3,0.4s0.1,0.2,0.2,0.3l0,0c0,0,0,0,0,0.1c0,0,0.1,0.1,0.1,0.2c0,0,0.1,0.1,0.1,0.2s0.2,0.2,0.3,0.4
		s0.3,0.3,0.5,0.5c0.3,0.2,0.6,0.5,1,0.7s0.9,0.3,1.5,0.3l0,0l0,0v1.1H556v-1.1h0.6c0.6,0,1-0.1,1.1-0.3s0.2-0.3,0.2-0.5
		c0-0.1,0-0.2-0.1-0.4c-0.1-0.2-0.1-0.4-0.2-0.6c0,0,0-0.1-0.1-0.1c0,0,0-0.1-0.1-0.1c0-0.2-0.1-0.3-0.2-0.4s-0.1-0.2-0.2-0.3
		l-6.4-10.7l-3.6,4v5.7c0,1.1,0.2,2,0.6,2.7s1.2,1,2.4,1.1v1.1h-9.2v-1.1c1.2,0,2.1-0.4,2.5-1.1s0.6-1.6,0.6-2.7v-18.2
		c0-1.1-0.2-2-0.6-2.7s-1.2-1.1-2.5-1.1V437h9.2L550.1,437.9L550.1,437.9z"/>
	<path d="M603.9,439c1-0.3,1.9-0.7,2.7-1.1c0.8-0.5,1.3-1.3,1.5-2.4h1.7l7.3,24c0,0.1,0.1,0.2,0.1,0.3s0.1,0.2,0.1,0.3
		c0.4,1.1,0.8,1.9,1.4,2.5c0.5,0.6,1.4,1,2.7,1.2v1.1H612v-1.1c1.1,0,1.8-0.2,2.1-0.5s0.5-0.7,0.5-1.1c0-0.2,0-0.4-0.1-0.7
		s-0.1-0.5-0.2-0.8v-0.1c0,0,0-0.1-0.1-0.2l-1.2-4.2h-10l-1.4,4.2c0,0.1-0.1,0.3-0.1,0.4s0,0.3-0.1,0.5c0,0.2,0,0.4,0,0.6
		s0,0.3,0,0.5c0,0.4,0.2,0.7,0.6,0.9s0.9,0.3,1.4,0.4v1.1h-8v-1.1c1.2-0.2,2-0.7,2.7-1.3s1.1-1.4,1.5-2.3l6.2-17.9
		c0-0.1,0.1-0.2,0.1-0.3c0-0.1,0-0.2,0.1-0.3s0-0.2,0.1-0.3s0-0.2,0-0.3c0-0.3-0.1-0.6-0.3-0.8s-0.5-0.3-1-0.3c-0.1,0-0.2,0-0.4,0
		s-0.3,0-0.5,0.1L603.9,439L603.9,439z M608.1,441h-0.2l-4.4,13.5h8.8L608.1,441z"/>
	<path d="M649.8,438.2c1.4,0.9,2.3,2,2.8,3.1c0.3,0.7,0.6,1.4,0.7,2c0.1,0.7,0.1,1.2,0.1,1.6c0,1.9-0.5,3.4-1.5,4.6
		c-1,1.1-2,1.9-3.2,2.4c-0.3,0.1-0.6,0.2-0.9,0.3c-0.3,0.1-0.5,0.2-0.8,0.2l4.8,8.2c0.1,0.2,0.2,0.3,0.3,0.4s0.1,0.2,0.2,0.3l0,0
		c0,0,0,0,0,0.1c0,0,0.1,0.1,0.1,0.2c0,0,0.1,0.1,0.1,0.2s0.2,0.2,0.3,0.4s0.3,0.3,0.5,0.5c0.3,0.2,0.6,0.5,1,0.7s0.9,0.3,1.5,0.3
		l0,0l0,0v1.1h-8.9v-1.1h0.5c0.5,0,0.9,0,1.3-0.1c0.4-0.1,0.6-0.3,0.6-0.7v-0.1v-0.1c0-0.2-0.1-0.4-0.3-0.7s-0.3-0.5-0.5-0.8
		c0,0-0.1-0.1-0.1-0.2c0,0,0-0.1-0.1-0.2l-4.6-7.8c-0.2,0-0.3,0-0.5,0s-0.3,0-0.4,0c-0.2,0-0.4,0-0.6,0s-0.5,0-0.8,0
		c-0.1,0-0.2,0-0.2,0H641c-0.2,0-0.4,0-0.5,0s-0.3,0-0.5,0s-0.5,0-0.7-0.1s-0.5-0.1-0.9-0.1v7.1c0,0.1,0,0.2,0,0.3s0,0.2,0,0.3
		c0,0.8,0.3,1.4,0.6,2.1s1.2,1,2.4,1.1v1.1h-9.2v-1.1c1.3,0,2.2-0.4,2.5-1.1s0.5-1.6,0.5-2.7v-18.2c0-1.1-0.2-2-0.6-2.6
		s-1.2-1-2.4-1.2v-1.1h11.5C646.3,436.8,648.4,437.3,649.8,438.2z M638.3,451.3c0.5,0.1,1,0.1,1.6,0.2s1,0.1,1.4,0.1
		c2.8,0,4.9-0.7,6.3-2s2.1-2.9,2.1-4.8c0-1.8-0.4-3.1-1.2-3.9s-1.7-1.5-2.6-1.8c-0.6-0.2-1.2-0.3-1.8-0.4s-1-0.1-1.4-0.1
		c-1.6,0-2.8,0.1-3.4,0.3s-1,0.8-1,1.6L638.3,451.3L638.3,451.3z"/>
	<path d="M671.3,463.7c1.1,0,1.9-0.4,2.3-1s0.7-1.5,0.7-2.7v-18.8c0-1.2-0.2-2-0.6-2.3c-0.4-0.3-1-0.4-1.8-0.4c-0.5,0-1,0.1-1.7,0.2
		c-0.7,0.2-1.4,0.5-2.1,0.9c-0.4,0.3-0.8,0.6-1.2,1s-0.8,0.9-1.2,1.5h-1l1.2-5.3h20l1.2,5.3h-1c-0.5-0.8-1.1-1.5-1.8-2
		c-0.6-0.5-1.3-0.9-2-1.2c-0.4-0.2-0.8-0.3-1.3-0.3s-0.8-0.1-1.2-0.1c-0.8,0-1.3,0.1-1.8,0.4c-0.4,0.3-0.7,1-0.7,2.3V460
		c0,1.2,0.2,2.1,0.6,2.7s1.2,0.9,2.4,1v1.1h-9.1L671.3,463.7L671.3,463.7z"/>
</g>
<g class="st1">
	<line class="st2" x1="212" y1="374.2" x2="212" y2="25.8"/>
	<line class="st2" x1="250.7" y1="374.2" x2="250.7" y2="25.8"/>
	<line class="st2" x1="289.4" y1="374.2" x2="289.4" y2="25.8"/>
	<line class="st2" x1="328.1" y1="374.2" x2="328.1" y2="25.8"/>
	<line class="st2" x1="366.9" y1="374.2" x2="366.9" y2="25.8"/>
	<line class="st2" x1="405.6" y1="374.2" x2="405.6" y2="25.8"/>
	<line class="st2" x1="444.3" y1="374.2" x2="444.3" y2="25.8"/>
	<line class="st2" x1="483" y1="374.2" x2="483" y2="25.8"/>
	<line class="st2" x1="521.7" y1="335.5" x2="173.3" y2="335.5"/>
	<line class="st2" x1="521.7" y1="296.8" x2="173.3" y2="296.8"/>
	<line class="st2" x1="521.7" y1="258.1" x2="173.3" y2="258.1"/>
	<line class="st2" x1="521.7" y1="219.3" x2="173.3" y2="219.3"/>
	<line class="st2" x1="521.7" y1="180.6" x2="173.3" y2="180.6"/>
	<line class="st2" x1="521.7" y1="141.9" x2="173.3" y2="141.9"/>
	<line class="st2" x1="521.7" y1="103.2" x2="173.3" y2="103.2"/>
	<line class="st2" x1="521.7" y1="64.5" x2="173.3" y2="64.5"/>
</g>
<line class="st3" x1="173.3" y1="400" x2="173.3" y2="0"/>
<line class="st3" x1="521.7" y1="400" x2="521.7" y2="0"/>
<line class="st3" x1="547.5" y1="374.2" x2="147.5" y2="374.2"/>
<line class="st3" x1="547.5" y1="25.8" x2="147.5" y2="25.8"/>
<circle class="st4" cx="347.5" cy="200" r="174.2"/>
<g>
	<g>
		<line class="st2" x1="173.3" y1="200" x2="175.8" y2="200"/>
		<line class="st5" x1="180.8" y1="200" x2="516.7" y2="200"/>
		<line class="st2" x1="519.2" y1="200" x2="521.7" y2="200"/>
	</g>
</g>
<path class="st6" d="M173.3,25.8c42.8,0,77.4,34.7,77.4,77.4c0,42.8-34.7,77.4-77.4,77.4"/>
<path class="st6" d="M521.7,180.6c-42.8,0-77.4-34.7-77.4-77.4c0-42.8,34.7-77.4,77.4-77.4"/>
<circle class="st6" cx="270.1" cy="316.1" r="58.1"/>
<circle class="st6" cx="424.9" cy="316.1" r="58.1"/>
<circle class="st6" cx="289.4" cy="45.2" r="19.3"/>
<circle class="st6" cx="424.9" cy="45.2" r="19.3"/>
<g>
	<g>
		<line class="st2" x1="521.7" y1="25.8" x2="519.9" y2="27.6"/>
		<line class="st7" x1="516.4" y1="31.1" x2="176.9" y2="370.6"/>
		<line class="st2" x1="175.1" y1="372.4" x2="173.3" y2="374.2"/>
	</g>
</g>
<g>
	<g>
		<line class="st2" x1="173.3" y1="25.8" x2="175.1" y2="27.6"/>
		<line class="st7" x1="178.6" y1="31.1" x2="518.2" y2="370.6"/>
		<line class="st2" x1="519.9" y1="372.4" x2="521.7" y2="374.2"/>
	</g>
</g>
<linearGradient id="SVGID_1_" gradientUnits="userSpaceOnUse" x1="347.5" y1="-301.1632" x2="347.5" y2="488.8702">
	<stop  offset="0" style="stop-color:#FFFFFF"/>
	<stop  offset="1" style="stop-color:#000000"/>
</linearGradient>
<path class="st8" d="M521.7,25.8c-14.1,0-27.3,3.8-38.7,10.4c-11.8,6.8-21.5,16.6-28.3,28.4l0,0l-10.3,16l-14.7,22.7l-24,37v1.7
	h-1.1l-25.1,38.7L366.9,200v116.1c0,6.8,1.2,13.3,3.3,19.3c5.8,16.5,18.9,29.6,35.4,35.4c6,2.1,12.6,3.3,19.3,3.3H270.1
	c6.8,0,13.3-1.2,19.3-3.3c16.5-5.8,29.6-18.9,35.4-35.4c2.1-6,3.3-12.6,3.3-19.3V200l-12.5-19.3L290.5,142h-1.1v-1.7l-24-37
	l-14.7-22.7l-10.4-16C233.6,52.8,223.8,43,212,36.2c-11.4-6.6-24.6-10.4-38.7-10.4h116.1c-10.7,0-19.3,8.7-19.3,19.4
	c0,2.7,0.5,5.2,1.5,7.5l0,0l3.7,5.7l4,6.1l10.2,15.7l14.8,23l23.9,36.9l1.2,1.8l25,38.7l2.9,4.5l2.9-4.5l6.7-10.3l18.4-28.4
	l20.3-31.4l4.8-7.4l25.1-38.7l5.3-8.1c2.2-3.2,3.6-7,3.6-11.2c0-10.7-8.7-19.4-19.3-19.4L521.7,25.8L521.7,25.8z"/>
</svg>
