<?xml version="1.0" encoding="utf-8"?>
<!-- Generator: Adobe Illustrator 23.1.1, SVG Export Plug-In . SVG Version: 6.00 Build 0)  -->
<svg version="1.1" xmlns="http://www.w3.org/2000/svg" xmlns:xlink="http://www.w3.org/1999/xlink" x="0px" y="0px"
	 viewBox="0 0 1322.13 200" style="enable-background:new 0 0 1322.13 200;" xml:space="preserve">
<style type="text/css">
	.st0{display:none;}
	.st1{fill:#9E855E;}
</style>
<g id="Guides1_1_" class="st0">
</g>
<g id="Guides2">
</g>
<g id="Figure1">
	<g>
		<path class="st1" d="M500,100h18c0-2.4,0.13-4.78,0.33-7.13l-15.71-15.71C500.91,84.5,500,92.14,500,100z"/>
		<path class="st1" d="M600,0c-32.2,0-60.83,15.22-79.12,38.85l12.89,12.89C548.69,31.31,572.82,18,600,18c45.21,0,82,36.79,82,82
			c0,45.21-36.79,82-82,82c-30.7,0-57.49-16.96-71.54-42h-20.13c15.43,35.32,50.67,60,91.67,60c55.23,0,100-44.77,100-100
			S655.23,0,600,0z"/>
	</g>
	<polygon class="st1" points="900.03,0 900.03,18 705.29,18 700,12.71 700,0 	"/>
	<g>
		<polygon class="st1" points="806.38,93.62 712.75,0 687.29,0 700,12.71 705.29,18 793.65,106.35 		"/>
	</g>
	<g>
		<path class="st1" d="M748.78,163.97L712.75,200h-25.46l35.93-35.93l12.83-12.82C739.81,155.95,744.08,160.22,748.78,163.97z"/>
	</g>
	<path class="st1" d="M900,100c0,55.23-44.77,100-100,100c-24.38,0-46.71-8.72-64.05-23.2c-4.62-3.85-8.88-8.11-12.73-12.73
		l12.83-12.82c3.76,4.7,8.03,8.97,12.73,12.72C762.82,175.25,780.64,182,800,182c45.21,0,82-36.79,82-82H900z"/>
	<rect x="881.93" class="st1" width="18" height="36"/>
	
		<rect x="781.11" y="86.89" transform="matrix(0.7071 0.7071 -0.7071 0.7071 309.1212 -526.5076)" class="st1" width="18" height="46"/>
	<rect x="940.03" class="st1" width="18" height="200"/>
	
		<rect x="981.03" y="141" transform="matrix(6.123234e-17 -1 1 6.123234e-17 799.03 1181.03)" class="st1" width="18" height="100"/>
	
		<rect x="1040.03" y="150" transform="matrix(-1 -1.224647e-16 1.224647e-16 -1 2098.0601 350)" class="st1" width="18" height="50"/>
	<polygon class="st1" points="-0.11,160 -0.01,200 39.89,200 	"/>
	<polygon class="st1" points="187.27,0 100,87.28 30.73,18 100,18 100,0 12.73,0 5,0 0,0 0,12.73 5,17.73 5,18 5.27,18 91,103.72 
		91,200 109,200 109,103.72 182,30.73 182,100 200,100 200,12.73 200,9 200,0 	"/>
	<polygon class="st1" points="360,0 354.73,5.27 160,200 181.73,200 185.46,200 277.86,200 277.86,182 203.46,182 354.73,30.73 
		354.73,200 372.73,200 372.73,12.73 372.73,0 	"/>
	<polygon class="st1" points="1309.4,200 1304.13,194.73 1109.4,0 1131.13,0 1134.86,0 1227.26,0 1227.26,18 1152.86,18 
		1304.13,169.27 1304.13,0 1322.13,0 1322.13,187.27 1322.13,200 	"/>
	<polygon class="st1" points="430.73,5.27 430.73,200.76 412.73,200.76 412.73,0 425.46,0 	"/>
	<polygon class="st1" points="525.46,100 500,100 412.73,12.73 412.73,0 425.46,0 	"/>
	<polygon class="st1" points="1058.03,5.27 1052.76,0 1040.03,0 1040.03,12.73 1040.03,110 1058.03,110 1058.03,30.73 1209.3,182 
		1134.9,182 1134.9,200 1227.3,200 1231.03,200 1252.76,200 	"/>
	<circle class="st1" cx="600" cy="100" r="9"/>
</g>
</svg>
