<?xml version="1.0" encoding="utf-8"?>
<!-- Generator: Adobe Illustrator 23.1.1, SVG Export Plug-In . SVG Version: 6.00 Build 0)  -->
<svg version="1.1" id="Layer_1" xmlns="http://www.w3.org/2000/svg" xmlns:xlink="http://www.w3.org/1999/xlink" x="0px" y="0px"
	 viewBox="0 0 687 465.3" style="enable-background:new 0 0 687 465.3;" xml:space="preserve">
<style type="text/css">
	
		.st0{opacity:0.45;fill:none;stroke:#FFFFFF;stroke-width:2;stroke-miterlimit:10;stroke-dasharray:10,5;enable-background:new    ;}
	.st1{opacity:0.6;}
	.st2{fill:none;stroke:#FFFFFF;stroke-width:1.5;stroke-miterlimit:10;stroke-dasharray:2.5456;}
	.st3{fill:none;stroke:#FFFFFF;stroke-width:1.5;stroke-miterlimit:10;}
	.st4{fill:none;stroke:#FFFFFF;stroke-width:1.5;stroke-miterlimit:10;stroke-dasharray:10.0186,4.9859;}
	.st5{fill:none;stroke:#FFFFFF;stroke-width:1.5;stroke-miterlimit:10;stroke-dasharray:10.0201,4.9866;}
	.st6{fill:none;stroke:url(#SVGID_1_);stroke-miterlimit:10;}
	.st7{fill:none;stroke:url(#SVGID_2_);stroke-miterlimit:10;}
	.st8{fill:none;stroke:url(#SVGID_3_);stroke-miterlimit:10;}
	.st9{fill:none;stroke:url(#SVGID_4_);stroke-miterlimit:10;}
	.st10{fill:url(#SVGID_5_);}
	.st11{fill:none;stroke:url(#SVGID_6_);stroke-miterlimit:10;}
	.st12{fill:none;stroke:url(#SVGID_7_);stroke-miterlimit:10;}
	.st13{fill:none;stroke:#B8976E;stroke-width:2;stroke-miterlimit:10;}
	.st14{opacity:0.48;fill:#FFFFFF;enable-background:new    ;}
	.st15{fill:#FFFFFF;}
</style>
<circle class="st0" cx="347.5" cy="199.7" r="174.2"/>
<g class="st1">
	<g>
		<g>
			<line class="st2" x1="521.7" y1="25.5" x2="519.9" y2="27.3"/>
		</g>
		<g>
			<g>
				<line class="st3" x1="516.4" y1="30.8" x2="512.9" y2="34.3"/>
				<line class="st4" x1="509.3" y1="37.9" x2="182.2" y2="365"/>
				<line class="st3" x1="180.4" y1="366.8" x2="176.9" y2="370.3"/>
			</g>
		</g>
		<g>
			<line class="st2" x1="175.1" y1="372.1" x2="173.3" y2="373.9"/>
		</g>
	</g>
</g>
<g class="st1">
	<g>
		<g>
			<line class="st2" x1="173.3" y1="25.5" x2="175.1" y2="27.3"/>
		</g>
		<g>
			<g>
				<line class="st3" x1="178.6" y1="30.8" x2="182.1" y2="34.3"/>
				<line class="st5" x1="185.7" y1="37.9" x2="512.9" y2="365"/>
				<line class="st3" x1="514.7" y1="366.8" x2="518.2" y2="370.3"/>
			</g>
		</g>
		<g>
			<line class="st2" x1="519.9" y1="372.1" x2="521.7" y2="373.9"/>
		</g>
	</g>
</g>
<linearGradient id="SVGID_1_" gradientUnits="userSpaceOnUse" x1="212.25" y1="-2776.8" x2="212.25" y2="-2621" gradientTransform="matrix(1 0 0 -1 0 -2596)">
	<stop  offset="0" style="stop-color:#E4CDA8"/>
	<stop  offset="1" style="stop-color:#B8995E"/>
</linearGradient>
<path class="st6" d="M173.3,25.5c42.8,0,77.4,34.7,77.4,77.4c0,42.8-34.7,77.4-77.4,77.4"/>
<linearGradient id="SVGID_2_" gradientUnits="userSpaceOnUse" x1="482.75" y1="-2776.8" x2="482.75" y2="-2621" gradientTransform="matrix(1 0 0 -1 0 -2596)">
	<stop  offset="0" style="stop-color:#E4CDA8"/>
	<stop  offset="1" style="stop-color:#B8995E"/>
</linearGradient>
<path class="st7" d="M521.7,180.3c-42.8,0-77.4-34.7-77.4-77.4c0-42.8,34.7-77.4,77.4-77.4"/>
<linearGradient id="SVGID_3_" gradientUnits="userSpaceOnUse" x1="289.4" y1="-2660.7" x2="289.4" y2="-2621.1001" gradientTransform="matrix(1 0 0 -1 0 -2596)">
	<stop  offset="0" style="stop-color:#E4CDA8"/>
	<stop  offset="1" style="stop-color:#B8995E"/>
</linearGradient>
<circle class="st8" cx="289.4" cy="44.9" r="19.3"/>
<linearGradient id="SVGID_4_" gradientUnits="userSpaceOnUse" x1="424.9" y1="-2660.7" x2="424.9" y2="-2621.1001" gradientTransform="matrix(1 0 0 -1 0 -2596)">
	<stop  offset="0" style="stop-color:#E4CDA8"/>
	<stop  offset="1" style="stop-color:#B8995E"/>
</linearGradient>
<circle class="st9" cx="424.9" cy="44.9" r="19.3"/>
<linearGradient id="SVGID_5_" gradientUnits="userSpaceOnUse" x1="347.4616" y1="463.0158" x2="348.2295" y2="52.928" gradientTransform="matrix(1 0 0 -1 0 468)">
	<stop  offset="0" style="stop-color:#B5996A"/>
	<stop  offset="1" style="stop-color:#726554"/>
</linearGradient>
<path class="st10" d="M521.7,25.5c-14.1,0-27.3,3.8-38.7,10.4c-11.8,6.8-21.5,16.6-28.3,28.4l0,0l-10.3,16L429.7,103l-24,37v1.7
	h-1.1l-25.1,38.7l-12.6,19.3v116.1c0,6.8,1.2,13.3,3.3,19.3c5.8,16.5,18.9,29.6,35.4,35.4c6,2.1,12.6,3.3,19.3,3.3H270.1
	c6.8,0,13.3-1.2,19.3-3.3c16.5-5.8,29.6-18.9,35.4-35.4c2.1-6,3.3-12.6,3.3-19.3V199.7l-12.5-19.3l-25.1-38.7h-1.1V140l-24-37
	l-14.7-22.7l-10.4-16c-6.7-11.8-16.5-21.6-28.3-28.4c-11.4-6.6-24.6-10.4-38.7-10.4h116.1c-10.7,0-19.3,8.7-19.3,19.4
	c0,2.7,0.5,5.2,1.5,7.5l0,0l3.7,5.7l4,6.1l10.2,15.7l14.8,23l23.9,36.9l1.2,1.8l25,38.7l2.9,4.5l2.9-4.5l6.7-10.3l18.4-28.4
	l20.3-31.4l4.8-7.4l25.1-38.7l5.3-8.1c2.2-3.2,3.6-7,3.6-11.2c0-10.7-8.7-19.4-19.3-19.4L521.7,25.5L521.7,25.5z"/>
<linearGradient id="SVGID_6_" gradientUnits="userSpaceOnUse" x1="270.1" y1="-2970.3999" x2="270.1" y2="-2853.2" gradientTransform="matrix(1 0 0 -1 0 -2596)">
	<stop  offset="0" style="stop-color:#E4CDA8"/>
	<stop  offset="1" style="stop-color:#B8995E"/>
</linearGradient>
<circle class="st11" cx="270.1" cy="315.8" r="58.1"/>
<linearGradient id="SVGID_7_" gradientUnits="userSpaceOnUse" x1="424.9" y1="-2970.3999" x2="424.9" y2="-2853.2" gradientTransform="matrix(1 0 0 -1 0 -2596)">
	<stop  offset="0" style="stop-color:#E4CDA8"/>
	<stop  offset="1" style="stop-color:#B8995E"/>
</linearGradient>
<circle class="st12" cx="424.9" cy="315.8" r="58.1"/>
<line class="st13" x1="173.3" y1="0" x2="173.3" y2="399.7"/>
<line class="st13" x1="521.7" y1="0" x2="521.7" y2="399.7"/>
<line class="st13" x1="147.7" y1="374.1" x2="547.4" y2="374.1"/>
<line class="st13" x1="147.7" y1="25.7" x2="547.4" y2="25.7"/>
<g>
	<g>
		<path class="st14" d="M7.2,438.9l-3.4-0.1c-0.4-0.6-1-1.2-1.7-1.7s-1.6-0.8-2.4-0.8h-0.6v-0.4H9.2v0.4H8.6c-0.6,0-1.1,0.3-1.4,0.9
			C7,437.8,7,438.3,7.2,438.9z M5.6,435.9l8,15l-1.8,1.5L2,436h3.6V435.9z M11.7,461.7v3H8.4v-0.4c0.3,0,0.5,0,0.5,0
			c0.7,0,1.4-0.3,1.9-0.8C11.3,463,11.6,462.5,11.7,461.7L11.7,461.7z M14.3,451.5v13.2h-2.6v-13.2H14.3z M21.6,435.9h2.5L14,452.3
			l-1.5-0.5L21.6,435.9z M14.1,461.7L14.1,461.7c0.1,0.7,0.4,1.4,0.9,1.9s1.2,0.8,1.9,0.8h0.5v0.4h-3.2
			C14.1,464.7,14.1,461.7,14.1,461.7z M19.9,438.9c0.3-0.4,0.3-0.8,0.2-1.2c-0.1-0.4-0.3-0.7-0.6-1c-0.3-0.3-0.7-0.4-1.1-0.4h-0.5
			v-0.4H27v0.4h-0.6c-0.9,0-1.7,0.3-2.3,0.8c-0.8,0.5-1.4,1.1-1.8,1.7L19.9,438.9z"/>
		<path class="st14" d="M39.8,461.7c-0.2,0.6-0.2,1-0.1,1.4c0.1,0.4,0.4,0.7,0.7,0.9c0.3,0.2,0.7,0.3,1,0.3h0.4v0.4h-8.2v-0.4H34
			c0.6,0,1.3-0.2,2-0.6s1.3-1.1,1.7-2L39.8,461.7L39.8,461.7z M48.6,435.3l0.4,2.8l-10.3,26.3h-2.5l10.6-25c0.3-0.7,0.6-1.3,0.8-1.8
			s0.4-1,0.5-1.5c0.2-0.5,0.2-0.8,0.2-1h0.3C48.6,435.1,48.6,435.3,48.6,435.3z M54.4,453.5v1.3H41.5v-1.3H54.4z M48.6,435.3
			l12.1,29.1h-3.5l-9.5-25.2L48.6,435.3z M56.2,461.7h3.3c0.4,1,1,1.6,1.7,2s1.4,0.6,2,0.6h0.4v0.4h-9.3v-0.4h0.4
			c0.5,0,1-0.2,1.4-0.7C56.5,463.1,56.5,462.6,56.2,461.7z"/>
		<path class="st14" d="M76,439L76,439c-0.1-0.7-0.4-1.4-0.9-1.9s-1.1-0.8-1.9-0.8h-0.5v-0.4H76V439L76,439z M76,461.7v3h-3.3v-0.4
			h0.5c0.7,0,1.4-0.3,1.9-0.8S75.9,462.4,76,461.7L76,461.7L76,461.7z M78.5,435.9v28.8h-2.6v-28.8H78.5z M83.8,435.9
			c1.3,0,2.3,0.2,3.3,0.5c1,0.4,1.9,0.9,2.5,1.6c0.7,0.7,1.2,1.5,1.6,2.4c0.4,1,0.6,2.1,0.6,3.2c0,1.3-0.3,2.5-0.9,3.8
			s-1.5,2.2-2.5,2.9s-2.3,1.2-3.5,1.2c0.5,0.2,1,0.6,1.6,1.2s1.1,1.2,1.5,1.7c0.8,1.1,1.4,2,2,2.7s1.2,1.6,1.7,2.3s1.1,1.4,1.5,1.8
			c0.6,0.6,1.1,1.2,1.7,1.6c0.6,0.5,1.2,0.9,1.8,1.1c0.7,0.3,1.4,0.4,2.2,0.4v0.4h-2.3c-1.3,0-2.3-0.2-3.2-0.6
			c-0.9-0.4-1.7-0.9-2.3-1.4c-0.6-0.6-1.2-1.1-1.6-1.7c-0.1-0.1-0.3-0.4-0.7-1c-0.4-0.5-0.8-1.2-1.3-1.9c-0.5-0.7-1-1.5-1.5-2.2
			s-0.9-1.4-1.3-1.9s-0.6-0.8-0.6-0.9c-0.5-0.7-1.1-1.3-1.8-1.9c-0.6-0.6-1.3-0.9-2.1-0.9v-0.4c0.9,0,1.6,0,2.2,0
			c0.7,0,1.5-0.1,2.3-0.3c0.9-0.2,1.7-0.6,2.3-1.2c0.8-0.6,1.3-1.6,1.7-2.7c0.1-0.3,0.2-0.7,0.2-1.2c0.1-0.5,0.1-0.9,0-1.4
			c0-1.9-0.5-3.3-1.4-4.5c-0.9-1.1-2.2-1.7-3.7-1.8c-0.8-0.1-1.6-0.1-2.3-0.1c-0.8,0-1.8,0-2.8,0c0,0,0-0.1-0.1-0.4
			c-0.1-0.2-0.2-0.5-0.3-0.9H84v0.5L83.8,435.9L83.8,435.9z M78.4,461.7L78.4,461.7c0.1,0.7,0.4,1.4,0.9,1.9s1.2,0.8,1.9,0.8h0.5
			v0.4h-3.2v-3.1L78.4,461.7L78.4,461.7z"/>
		<path class="st14" d="M122.9,435.3c2.9,0,5.5,0.6,7.7,1.9s3.9,3,5.2,5.3s1.9,4.9,1.9,7.8c0,3-0.6,5.6-1.9,7.8s-2.9,4-5.2,5.3
			s-4.8,1.9-7.7,1.9c-2.9,0-5.5-0.6-7.7-1.9s-3.9-3-5.2-5.3s-1.9-4.9-1.9-7.8c0-3,0.6-5.6,1.9-7.8c1.3-2.3,2.9-4,5.2-5.3
			S119.9,435.3,122.9,435.3z M122.9,464c2.3,0,4.4-0.6,6.1-1.8c1.8-1.2,3.1-2.7,4.1-4.8s1.5-4.4,1.5-7.2c0-2.7-0.5-5.1-1.5-7.1
			s-2.3-3.6-4.1-4.8c-1.8-1.2-3.8-1.8-6.1-1.8c-2.3,0-4.3,0.6-6.1,1.8c-1.8,1.2-3.1,2.7-4.1,4.8c-1,2.1-1.5,4.4-1.5,7.1
			s0.5,5.1,1.5,7.2s2.3,3.6,4.1,4.8S120.5,464,122.9,464z"/>
		<path class="st14" d="M157.1,435.3c0.4,0,0.9,0,1.4,0.1s1,0.1,1.5,0.2s0.9,0.2,1.3,0.3c0.4,0.1,0.7,0.2,0.9,0.3v4.6h-0.4
			c0-1.3-0.5-2.3-1.4-3.1c-0.9-0.8-2-1.2-3.3-1.2c-1.5,0-2.7,0.5-3.6,1.4c-1,1-1.4,2.1-1.4,3.3c0,0.5,0.1,1.2,0.4,1.9
			c0.2,0.7,0.7,1.4,1.3,2l8.1,7.4c0.8,0.8,1.4,1.6,1.7,2.4c0.3,0.9,0.4,1.8,0.4,2.5c0,2.3-0.7,4.1-2.1,5.6c-1.4,1.5-3.2,2.2-5.6,2.2
			c-0.7,0-1.5-0.1-2.3-0.2s-1.8-0.4-2.5-0.7c-0.9-0.3-1.6-0.8-2.1-1.4c-0.1-0.4-0.1-1-0.1-1.7s0.1-1.4,0.2-2.1
			c0.1-0.7,0.3-1.4,0.5-2h0.4c-0.1,1.4,0,2.6,0.5,3.6c0.5,1.1,1.2,1.9,2.2,2.3s2.1,0.8,3.2,0.7c1.5-0.1,2.8-0.6,3.9-1.6
			c1.1-1,1.7-2.3,1.7-3.9c0-0.8-0.1-1.5-0.4-2.2c-0.3-0.7-0.7-1.2-1.2-1.7l-7.9-7.3c-0.8-0.8-1.4-1.6-1.8-2.5
			c-0.3-0.9-0.5-1.8-0.5-2.5c0-1.2,0.3-2.3,0.8-3.3c0.6-1.1,1.4-2,2.4-2.6C154.3,435.7,155.6,435.3,157.1,435.3z M162.3,435.7v0.9
			h-3.1v-0.9H162.3z"/>
		<path class="st14" d="M179.3,439L179.3,439c-0.1-0.7-0.4-1.4-0.9-1.9s-1.1-0.8-1.9-0.8H176v-0.4h3.3V439L179.3,439z M179.3,461.7
			v3H176v-0.4h0.5c0.7,0,1.4-0.3,1.9-0.8s0.8-1.1,0.8-1.9L179.3,461.7L179.3,461.7z M181.8,435.9v28.8h-2.6v-28.8H181.8z M181.7,439
			v-3h3.3v0.4c0,0-0.2,0-0.5,0c-0.7,0-1.4,0.3-1.9,0.8s-0.8,1.1-0.8,1.9L181.7,439L181.7,439z M193,463.4v1.3h-11.3v-1.3H193z
			 M195.4,458.1l-2.3,6.7h-6.9l1.5-1.3c1.5,0,2.6-0.2,3.5-0.7s1.7-1.1,2.3-2s1.1-1.8,1.6-2.8L195.4,458.1L195.4,458.1z"/>
		<path class="st14" d="M209.7,461.7c-0.2,0.6-0.2,1-0.1,1.4c0.1,0.4,0.4,0.7,0.7,0.9c0.3,0.2,0.7,0.3,1,0.3h0.4v0.4h-8.2v-0.4h0.4
			c0.6,0,1.3-0.2,2-0.6s1.3-1.1,1.7-2L209.7,461.7L209.7,461.7z M218.5,435.3l0.4,2.8l-10.3,26.3h-2.4l10.6-25
			c0.3-0.7,0.6-1.3,0.8-1.8s0.4-1,0.5-1.5c0.2-0.5,0.2-0.8,0.2-1h0.2V435.3z M224.3,453.5v1.3h-12.8v-1.3H224.3z M218.5,435.3
			l12.1,29.1h-3.5l-9.5-25.2L218.5,435.3z M226.2,461.7h3.3c0.4,1,1,1.6,1.7,2s1.4,0.6,2,0.6h0.3v0.4h-9.3v-0.4h0.4
			c0.5,0,1-0.2,1.4-0.7C226.5,463.1,226.5,462.6,226.2,461.7z"/>
		<path class="st14" d="M247.1,438.9h-3.4c-0.4-1-1-1.6-1.7-2s-1.4-0.6-2-0.6h-0.3v-0.4h9.2v0.4h-0.4c-0.5,0-1,0.2-1.4,0.7
			C246.9,437.4,246.8,438.1,247.1,438.9z M255.3,465.3l-12.7-29.1h3.5l10.1,25.2L255.3,465.3z M255.3,465.3l-0.4-2.8l11-26.3h2.4
			l-11.2,25c-0.3,0.7-0.6,1.3-0.8,1.8s-0.4,1-0.5,1.5c-0.2,0.5-0.2,0.8-0.2,1h-0.3L255.3,465.3L255.3,465.3z M264.7,438.9
			c0.3-0.8,0.3-1.5-0.2-1.9c-0.4-0.4-0.9-0.7-1.4-0.7h-0.4v-0.4h8.2v0.4h-0.4c-0.6,0-1.3,0.2-2,0.6s-1.3,1.1-1.7,2H264.7z"/>
		<path class="st14" d="M301,439L301,439c-0.1-0.7-0.4-1.4-0.9-1.9s-1.2-0.8-1.9-0.8h-0.5v-0.4h3.3V439L301,439z M301,461.7v3h-3.3
			v-0.4h0.5c0.7,0,1.4-0.3,1.9-0.8s0.8-1.1,0.8-1.9L301,461.7L301,461.7z M303.5,435.9v28.8h-2.6v-28.8H303.5z M311.6,435.9
			c2.9,0,5.5,0.6,7.7,1.8c2.3,1.2,3.9,2.8,5.2,5c1.3,2.2,1.9,4.7,1.9,7.5s-0.6,5.4-1.9,7.5c-1.3,2.2-2.9,3.8-5.2,5
			c-2.3,1.2-4.8,1.8-7.7,1.8h-8.8v-1.3c1.2,0,2.3,0,3.1,0c0.9,0,1.8,0,2.6,0c0.9,0,1.9,0,3,0c2.3,0,4.4-0.6,6.2-1.7
			c1.8-1.1,3.1-2.6,4.1-4.6s1.5-4.3,1.5-7c0-2.6-0.5-4.9-1.5-7c-1-2-2.3-3.5-4.1-4.6c-1.8-1.1-3.8-1.7-6.2-1.7c-1.3,0-2.3,0-3.2,0
			s-1.9,0-2.7,0s-2.1,0-3.2,0v-1.3h9.2V435.9z"/>
		<path class="st14" d="M340.6,435.9v2.4h-0.1c0-0.6-0.2-1.1-0.7-1.5c-0.4-0.4-1-0.6-1.6-0.6h-0.7v-0.4h3.1L340.6,435.9L340.6,435.9
			z M343.1,435.9V454c0,2,0.4,3.7,1.1,5.2s1.8,2.6,3,3.5c1.3,0.9,2.8,1.3,4.6,1.3c1.9,0,3.4-0.4,4.8-1.2c1.4-0.8,2.4-1.9,3.2-3.3
			c0.8-1.4,1.2-3,1.2-5v-18.6h2v18.6c0,2.2-0.5,4-1.4,5.6s-2.3,2.8-3.9,3.7c-1.7,0.9-3.6,1.4-5.9,1.4s-4.3-0.5-6-1.4
			c-1.8-0.9-3-2.2-4-3.7c-1-1.6-1.4-3.4-1.4-5.6v-18.7L343.1,435.9L343.1,435.9z M346,435.9v0.4h-0.7c-0.6,0-1.1,0.2-1.6,0.6
			c-0.4,0.4-0.7,0.9-0.7,1.5l0,0V436h3L346,435.9L346,435.9z M361.2,435.9v2.4h-0.1c0-0.6-0.2-1.1-0.7-1.5c-0.4-0.4-1-0.6-1.6-0.6
			h-0.7v-0.4h3.1L361.2,435.9L361.2,435.9z M365.8,435.9v0.4h-0.7c-0.6,0-1.1,0.2-1.6,0.6c-0.4,0.4-0.7,0.9-0.7,1.5h-0.1V436h3.1
			L365.8,435.9L365.8,435.9z"/>
		<path class="st14" d="M380.7,439L380.7,439c-0.1-0.7-0.4-1.4-0.9-1.9s-1.2-0.8-1.9-0.8c0,0-0.1,0-0.2,0s-0.2,0-0.3,0v-0.4h3.3V439
			L380.7,439z M380.7,461.7v3h-3.3v-0.4c0.1,0,0.1,0,0.3,0s0.2,0,0.2,0c0.7,0,1.4-0.3,1.9-0.8s0.8-1.1,0.8-1.9L380.7,461.7
			L380.7,461.7z M383.3,435.9v28.8h-2.6v-28.8H383.3z M385.6,435.9c2,0,3.5,0.3,4.9,0.9s2.3,1.4,3,2.4s1,2.3,1,3.6
			c0,1.2-0.2,2.2-0.7,3c-0.4,0.9-1,1.6-1.7,2.1s-1.4,0.9-2.2,1.2c1.5,0.2,2.7,0.7,3.7,1.5s1.9,1.7,2.4,2.7c0.6,1.1,0.9,2.3,0.9,3.7
			c0,1.6-0.4,2.8-1.1,4s-1.9,2.1-3.2,2.7c-1.5,0.7-3.1,1-5.2,1H383c0-0.5,0-1,0-1.5h4.4c1.5,0,2.6-0.3,3.6-0.8s1.8-1.3,2.3-2.3
			s0.8-2.2,0.8-3.5c0-1.6-0.3-2.7-0.9-3.7s-1.4-1.7-2.3-2.2c-1-0.5-2-0.8-3-1s-2.2-0.3-3.1-0.3V449c0.6,0,1.4-0.1,2.1-0.2
			c0.8-0.1,1.5-0.4,2.3-0.8c0.7-0.4,1.3-1,1.8-1.9c0.5-0.8,0.7-1.9,0.7-3.2c0-1.3-0.2-2.3-0.7-3.1c-0.5-0.9-1.1-1.6-2.1-2
			s-2-0.7-3.3-0.7h-3.7c0,0,0-0.1-0.1-0.4c-0.1-0.2-0.2-0.5-0.3-1L385.6,435.9L385.6,435.9z"/>
		<path class="st14" d="M412,439L412,439c-0.1-0.7-0.4-1.4-0.9-1.9s-1.2-0.8-1.9-0.8h-0.5v-0.4h3.3V439L412,439z M412,461.7v3h-3.3
			v-0.4h0.5c0.7,0,1.4-0.3,1.9-0.8s0.8-1.1,0.8-1.9L412,461.7L412,461.7z M414.5,435.9v28.8h-2.6v-28.8H414.5z M425.7,435.9v1.3
			h-11.3v-1.3H425.7z M423.9,449.9v1.3h-9.5v-1.3H423.9z M425.7,463.4v1.3h-11.3v-1.3H425.7z M428.1,458.1l-2.3,6.7h-6.9l1.5-1.3
			c1.5,0,2.6-0.2,3.5-0.7s1.7-1.1,2.3-2s1.1-1.8,1.6-2.8L428.1,458.1L428.1,458.1z M425.7,435.1v1.2l-5-0.5c0.6,0,1.3,0,2-0.1
			s1.3-0.2,1.9-0.3C425,435.4,425.4,435.3,425.7,435.1z M423.9,447.3v2.7h-2.3v-0.1c0.6,0,1-0.2,1.4-0.7c0.4-0.4,0.6-0.9,0.6-1.4
			v-0.6L423.9,447.3L423.9,447.3z M423.9,451.1v2.7h-0.4v-0.6c0-0.6-0.2-1-0.6-1.4s-0.9-0.6-1.4-0.6v-0.1H423.9L423.9,451.1z
			 M425.7,437.1v3.3h-0.4v-0.8c0-0.7-0.2-1.3-0.7-1.7c-0.5-0.5-1.1-0.7-1.8-0.8V437h2.9V437.1z"/>
		<path class="st14" d="M442.4,461.8v2.9H439v-0.4c0.5,0,0.8,0,0.8,0c0.7,0,1.3-0.3,1.8-0.8S442.3,462.5,442.4,461.8L442.4,461.8
			L442.4,461.8z M442.3,435.3l1.8,2.3v27.1h-1.9v-24.3c0-1.4-0.1-3.1-0.4-5.1H442.3L442.3,435.3z M442.3,435.3l23.9,25.5l0.4,4.5
			l-23.9-25.5L442.3,435.3z M444.2,461.8c0,0.7,0.3,1.3,0.8,1.8s1.1,0.8,1.8,0.8c0,0,0.3,0,0.8,0v0.4h-3.4L444.2,461.8L444.2,461.8
			L444.2,461.8z M461.4,435.9h3.4v2.9h-0.1c0-0.7-0.3-1.3-0.8-1.8s-1.1-0.7-1.8-0.7c-0.5,0-0.8,0-0.8,0L461.4,435.9L461.4,435.9z
			 M466.6,435.9V460c0,0.9,0,1.8,0.1,2.5s0.2,1.8,0.3,2.7h-0.4l-1.9-2.2v-27.2h1.9V435.9z M469.8,435.9v0.4H469
			c-0.7,0-1.3,0.2-1.8,0.7s-0.8,1.1-0.8,1.8h-0.1v-2.9H469.8L469.8,435.9z"/>
		<path class="st14" d="M484.6,439L484.6,439c-0.1-0.7-0.4-1.4-0.9-1.9s-1.1-0.8-1.9-0.8h-0.5v-0.4h3.3V439L484.6,439z M484.6,461.7
			v3h-3.3v-0.4h0.5c0.7,0,1.4-0.3,1.9-0.8s0.8-1.1,0.8-1.9L484.6,461.7L484.6,461.7z M487.1,435.9v28.8h-2.6v-28.8H487.1z
			 M487.1,439v-3h3.3v0.4c0,0-0.2,0-0.5,0c-0.7,0-1.4,0.3-1.9,0.8s-0.8,1.1-0.8,1.9L487.1,439L487.1,439z M487.1,461.7L487.1,461.7
			c0.1,0.7,0.4,1.4,0.9,1.9s1.1,0.8,1.9,0.8c0.3,0,0.5,0,0.5,0v0.4H487L487.1,461.7L487.1,461.7z"/>
		<path class="st14" d="M504.9,435.9v2.4h-0.1c0-0.6-0.2-1.1-0.7-1.5c-0.4-0.4-1-0.6-1.6-0.6h-0.7v-0.4h3.1L504.9,435.9L504.9,435.9
			z M507.4,435.9V454c0,2,0.4,3.7,1.1,5.2s1.8,2.6,3,3.5c1.3,0.9,2.8,1.3,4.6,1.3c1.9,0,3.4-0.4,4.8-1.2c1.4-0.8,2.4-1.9,3.2-3.3
			s1.2-3,1.2-5v-18.6h2v18.6c0,2.2-0.5,4-1.4,5.6s-2.3,2.8-3.9,3.7c-1.7,0.9-3.6,1.4-5.9,1.4s-4.3-0.5-6-1.4c-1.8-0.9-3-2.2-4-3.7
			c-1-1.6-1.4-3.4-1.4-5.6v-18.7L507.4,435.9L507.4,435.9z M510.3,435.9v0.4h-0.7c-0.6,0-1.1,0.2-1.6,0.6c-0.4,0.4-0.7,0.9-0.7,1.5
			h-0.1V436h3.1L510.3,435.9L510.3,435.9z M525.4,435.9v2.4h-0.1c0-0.6-0.2-1.1-0.7-1.5c-0.4-0.4-1-0.6-1.6-0.6h-0.7v-0.4h3.1V435.9
			z M530.1,435.9v0.4h-0.7c-0.6,0-1.1,0.2-1.6,0.6c-0.4,0.4-0.7,0.9-0.7,1.5H527V436h3.1V435.9z"/>
		<path class="st14" d="M545.1,439L545.1,439c-0.1-0.7-0.4-1.4-0.9-1.9s-1.1-0.8-1.9-0.8h-0.5v-0.4h3.3L545.1,439L545.1,439z
			 M545.1,461.7v3h-3.3v-0.4h0.5c0.7,0,1.4-0.3,1.9-0.8S545,462.4,545.1,461.7L545.1,461.7L545.1,461.7z M547.6,435.9v28.8H545
			v-28.8H547.6z M547.6,439v-3h3.3v0.4c0,0-0.2,0-0.5,0c-0.7,0-1.4,0.3-1.9,0.8S547.7,438.3,547.6,439L547.6,439L547.6,439z
			 M547.6,461.7L547.6,461.7c0.1,0.7,0.4,1.4,0.9,1.9s1.1,0.8,1.9,0.8c0.3,0,0.5,0,0.5,0v0.4h-3.3L547.6,461.7L547.6,461.7z
			 M563.1,436.2l-12.3,14.2h-1.9l11.3-14.2H563.1z M551.2,448.9l11.6,13.7c0.6,0.6,1.2,1,1.8,1.3s1.3,0.4,2.2,0.5v0.4H565
			c-0.3,0-0.7,0-1.2-0.1c-0.5,0-1.1-0.1-1.7-0.3c-0.6-0.2-1.2-0.4-1.8-0.7c-0.6-0.3-1.1-0.8-1.6-1.3c-1-1.2-1.9-2.2-2.5-3.1
			c-0.8-0.9-1.6-1.9-2.3-2.9c-0.8-1.1-1.7-2-2.3-2.9c-0.8-0.9-1.6-2-2.5-3.1L551.2,448.9z M566,435.9v0.4h-0.2
			c-0.9,0-1.8,0.2-2.5,0.5s-1.5,0.9-2,1.5l-2.5-0.1c0.4-0.5,0.4-0.9,0.2-1.3s-0.6-0.6-1.2-0.6h-0.4v-0.4H566L566,435.9z"/>
		<path class="st15" d="M596.9,461.7c-0.2,0.6-0.2,1-0.1,1.4c0.1,0.4,0.4,0.7,0.7,0.9c0.3,0.2,0.7,0.3,1,0.3h0.4v0.4h-8.2v-0.4h0.4
			c0.6,0,1.3-0.2,2-0.6s1.3-1.1,1.7-2L596.9,461.7L596.9,461.7z M605.7,435.3l0.4,2.8l-10.3,26.3h-2.4l10.6-25
			c0.3-0.7,0.6-1.3,0.8-1.8s0.4-1,0.5-1.5c0.2-0.5,0.2-0.8,0.2-1h0.2V435.3z M611.5,453.5v1.3h-12.8v-1.3H611.5z M605.7,435.3
			l12.1,29.1h-3.5l-9.5-25.2L605.7,435.3z M613.3,461.7h3.3c0.4,1,1,1.6,1.7,2s1.4,0.6,2,0.6h0.3v0.4h-9.3v-0.4h0.4
			c0.5,0,1-0.2,1.4-0.7S613.6,462.6,613.3,461.7z"/>
		<path class="st15" d="M633.1,439L633.1,439c-0.1-0.7-0.4-1.4-0.9-1.9s-1.1-0.8-1.9-0.8h-0.5v-0.4h3.3L633.1,439L633.1,439z
			 M633.1,461.7v3h-3.3v-0.4h0.5c0.7,0,1.4-0.3,1.9-0.8S633,462.4,633.1,461.7L633.1,461.7L633.1,461.7z M635.7,435.9v28.8H633
			v-28.8H635.7z M640.9,435.9c1.3,0,2.3,0.2,3.3,0.5c1,0.4,1.9,0.9,2.5,1.6s1.2,1.5,1.6,2.4s0.6,2.1,0.6,3.2c0,1.3-0.3,2.5-0.9,3.8
			c-0.6,1.2-1.5,2.2-2.5,2.9c-1.1,0.8-2.3,1.2-3.5,1.2c0.5,0.2,1,0.6,1.6,1.2s1,1.2,1.5,1.7c0.8,1.1,1.4,2,2,2.7s1.2,1.6,1.7,2.3
			c0.5,0.7,1.1,1.4,1.5,1.8c0.6,0.6,1.1,1.2,1.7,1.6c0.6,0.5,1.2,0.9,1.8,1.1c0.7,0.3,1.4,0.4,2.2,0.4v0.4h-2.3
			c-1.3,0-2.3-0.2-3.2-0.6s-1.7-0.9-2.3-1.4c-0.6-0.6-1.2-1.1-1.6-1.7c-0.1-0.1-0.3-0.4-0.7-1c-0.4-0.5-0.8-1.2-1.3-1.9
			c-0.5-0.7-1-1.5-1.5-2.2s-0.9-1.4-1.3-1.9c-0.4-0.5-0.6-0.8-0.6-0.9c-0.5-0.7-1.1-1.3-1.8-1.9c-0.6-0.6-1.3-0.9-2.1-0.9v-0.4
			c0.9,0,1.6,0,2.2,0c0.7,0,1.5-0.1,2.3-0.3c0.9-0.2,1.7-0.6,2.3-1.2c0.8-0.6,1.3-1.6,1.7-2.7c0.1-0.3,0.2-0.7,0.2-1.2
			c0.1-0.5,0.1-0.9,0-1.4c0-1.9-0.5-3.3-1.4-4.5c-0.9-1.1-2.2-1.7-3.7-1.8c-0.8-0.1-1.6-0.1-2.3-0.1c-0.8,0-1.8,0-2.8,0
			c0,0,0-0.1-0.1-0.4c-0.1-0.2-0.2-0.5-0.3-0.9h5.7v0.5L640.9,435.9L640.9,435.9z M635.6,461.7L635.6,461.7c0.1,0.7,0.4,1.4,0.9,1.9
			s1.2,0.8,1.9,0.8h0.5v0.4h-3.2v-3.1L635.6,461.7L635.6,461.7z"/>
		<path class="st15" d="M663.2,435.1c0.3,0.1,0.7,0.2,1.3,0.3c0.6,0.1,1.2,0.2,1.9,0.3c0.7,0.1,1.3,0.1,1.9,0.1l-5,0.5L663.2,435.1
			L663.2,435.1z M687,435.9v1.3h-23.8v-1.3H687z M666,437L666,437c-0.7,0.1-1.3,0.4-1.8,0.9s-0.7,1.1-0.7,1.8v0.7h-0.4V437H666z
			 M673.8,461.7v3h-3.3v-0.4h0.5c0.7,0,1.4-0.3,1.9-0.8S673.7,462.4,673.8,461.7L673.8,461.7L673.8,461.7z M676.4,436v28.7h-2.6V436
			H676.4z M676.3,461.7L676.3,461.7c0.1,0.7,0.4,1.4,0.9,1.9s1.1,0.8,1.9,0.8h0.5v0.4h-3.3L676.3,461.7L676.3,461.7z M687,435.1v1.2
			l-5-0.5c0.6,0,1.3,0,2-0.1s1.3-0.2,1.9-0.3C686.3,435.3,686.8,435.2,687,435.1z M687,437v3.3h-0.4v-0.7c0-0.7-0.2-1.3-0.7-1.8
			s-1.1-0.7-1.7-0.8l0,0H687z"/>
	</g>
</g>
</svg>
